<?xml version="1.0" encoding="UTF-8"?>
<svg id="a" data-name="Layer_1" xmlns="http://www.w3.org/2000/svg" width="4.228in" height="2.19in" viewBox="0 0 304.432 157.667">
  <g>
    <path d="M41.143,33.868h-13.523v27.399c0,3.977,2.564,5.303,8.397,5.303v5.304H8.44v-5.304c4.331,0,6.365-1.325,6.365-4.861v-27.841h-5.48v-6.187h5.48v-4.773c0-9.192,7.601-16.528,18.56-16.528,7.866,0,14.584,3.093,14.584,8.75,0,2.652-2.032,4.508-5.126,4.508-5.215,0-3.005-6.54-9.546-6.54-3.623,0-5.657,2.032-5.657,7.512v.796c0,2.386-.971,4.418-2.12,5.567l2.827,2.828c1.15-1.237,3.094-2.12,5.127-2.12h7.689v6.187Z"/>
    <path d="M54.216,54.019v-16.174c0-3.536-2.033-4.862-6.365-4.862v-5.303h19.18v26.515c0,9.105,2.564,12.021,7.424,12.021,4.685,0,8.574-3.624,13.435-11.491v-16.881c0-3.536-1.944-4.862-7.248-4.862v-5.303h20.064v31.465c0,5.48,2.032,7.424,6.364,7.424v5.304h-19.18v-.088c0-2.298,1.857-4.597,3.889-7.16l-2.652-2.564c-5.479,7.778-10.783,11.225-16.793,11.225-10.43,0-18.119-5.215-18.119-19.268Z"/>
    <path d="M130.282,32.189c-4.684,0-6.717,1.679-6.717,4.596,0,6.717,25.721,4.33,25.721,22.803,0,9.192-6.275,13.7-15.645,13.7-7.248,0-11.402-3.005-13.965-7.336l-2.386,1.679c.619,1.415,1.061,2.298,1.061,3.624v1.59h-5.745v-16.35h6.717c2.21,7.07,6.54,10.871,12.993,10.871,5.038,0,8.131-1.857,8.131-4.862,0-9.458-26.25-6.894-26.25-22.361,0-8.839,5.745-13.877,14.849-13.877,5.921,0,9.28,2.828,11.49,6.894l2.476-1.768c-.62-1.149-.973-1.944-.973-3.271v-1.414h4.331v13.611h-6.983c-2.032-4.95-5.391-8.131-9.104-8.131Z"/>
    <path d="M159.371,61.709v-23.864c0-3.536-2.033-4.862-6.365-4.862v-5.303l18.739-1.415v35.443c0,3.535,2.032,4.861,6.364,4.861v5.304h-25.102v-5.304c4.331,0,6.365-1.325,6.365-4.861ZM157.161,15.041c0-5.303,3.623-7.248,7.248-7.248,3.712,0,7.247,1.945,7.247,7.248,0,5.215-3.535,7.16-7.247,7.16-3.624,0-7.248-1.945-7.248-7.16Z"/>
    <path d="M242.341,61.709v-20.683c0-5.568-2.033-8.043-6.365-8.043v-5.303l19.18-1.415v1.415c0,2.298-1.856,4.684-3.888,7.247l2.651,2.564c5.48-7.778,10.783-11.225,16.794-11.225,10.429,0,18.119,5.215,18.119,19.268v16.175c0,3.535,2.033,4.861,6.364,4.861v5.304h-26.428v-5.304c5.304,0,7.248-1.325,7.248-4.861v-16.352c0-9.104-2.563-12.02-7.424-12.02-4.684,0-8.573,3.623-13.435,11.49v16.882c0,3.535,1.945,4.861,7.248,4.861v5.304h-26.428v-5.304c4.331,0,6.365-1.325,6.365-4.861Z"/>
    <path d="M28.327,90.714l-2.827,2.828c1.149,1.149,2.12,3.182,2.12,5.568v18.031c0,5.48,2.298,8.397,5.48,8.397,3.271,0,6.364-3.271,8.839-8.839l4.861,2.033c-2.563,8.75-8.309,13.523-15.909,13.523-9.988,0-16.086-5.834-16.086-16.794v-22.627h-6.365v-6.187c8.132,0,11.667-3.359,11.667-9.28h7.512v9.28h15.468v6.187h-9.634c-2.033,0-3.977-.884-5.127-2.122Z"/>
    <path d="M52.008,141.625c0-3.447,1.768-5.391,4.596-5.391,5.921,0,1.856,7.336,5.745,7.336,3.535,0,5.921-3.359,8.839-10.253l1.06-2.476-14.671-32.703c-1.857-4.154-4.597-6.187-8.574-6.187v-5.303h26.428v5.303c-6.54,0-6.364,2.564-4.862,6.187l4.685,11.225c1.237,3.006,2.21,6.629,2.21,9.193v2.474h3.889v-2.474c0-2.122.529-6.099,2.209-10.076l4.685-11.225c1.502-3.713,1.502-5.304-5.038-5.304v-5.303h19.622v5.303c-3.978,0-6.453,1.15-7.956,4.95l-14.849,36.769c-4.95,11.667-11.49,16.263-17.412,16.263-6.716,0-10.605-2.74-10.605-8.309Z"/>
    <path d="M113.534,138.355v-41.542c0-3.535-2.033-4.862-6.365-4.862v-5.303l19.18-1.414v2.298c0,1.856-1.944,4.154-3.889,6.364l2.652,2.652c5.215-7.514,9.722-11.313,17.236-11.313,10.605,0,21.124,7.336,21.124,23.51,0,16.352-10.695,23.511-21.124,23.511-7.514,0-12.021-3.801-17.236-11.313l-2.652,2.651c2.299,2.564,3.889,6.541,3.889,11.667v3.094c0,3.535,1.945,4.861,7.248,4.861v5.303h-26.428v-5.303c4.331,0,6.365-1.325,6.365-4.861ZM140.138,125.539c5.833,0,9.634-4.508,9.634-16.794s-3.801-16.794-9.634-16.794c-5.48,0-8.927,3.624-13.789,12.198v9.192c4.862,8.573,8.309,12.198,13.789,12.198Z"/>
    <path d="M196.052,132.256c-13.347,0-27.046-6.275-27.046-23.511,0-17.147,13.7-23.51,24.837-23.51,10.961,0,23.776,5.833,23.776,25.896h-35.708c.795,11.491,7.602,14.496,14.672,14.496,6.011,0,11.578-2.122,14.672-7.424l6.099,3.271c-3.801,7.777-11.756,10.783-21.301,10.783ZM205.51,104.944c-.884-10.783-6.364-13.081-11.667-13.081s-10.783,2.74-11.844,13.081h23.511Z"/>
  </g>
  <path d="M217.552,64.566c.22-.104.463-.174.66-.301.938-.625,1.865-1.285,2.814-1.911.533-.347,1.123-.602,1.656-.961,1.911-1.274,3.81-2.582,5.709-3.879.498-.336,1.065-.602,1.494-1.007.533-.486,1.181-.452,1.783-.567.556-.093,1.065.22,1.343.718.278.486.208,1.031-.093,1.505-.625,1.007-1.494,1.783-2.409,2.501-1.529,1.216-3.092,2.362-4.586,3.613-.579.486-.984,1.181-1.471,1.783-.174.22-.336.463-.498.695-.023.023-.035.058-.046.093.058.012.151.058.185.035.243-.139.475-.301.706-.463.776-.567,1.667-.695,2.582-.73.452-.012.649.266.487.695-.301.741-.88,1.274-1.459,1.807-.104.093-.255.127-.347.232-1.077,1.17-2.536,1.749-3.891,2.49-.486.266-1.007.51-1.436.869-.753.637-1.702.857-2.559,1.274-.729.347-1.227-.035-1.714-.452-.486-.405-.556-.973-.382-1.552.046-.174.104-.359.22-.486.671-.776,1.355-1.529,2.038-2.293.255-.29.533-.556.787-.857.058-.058.07-.174.093-.266-.093.023-.197.012-.29.046-.405.208-.822.405-1.204.648-1.123.741-2.2,1.54-3.347,2.258-1.714,1.054-3.451,2.073-4.968,3.416-.359.324-.741.637-1.297.66-.764.023-1.378-.243-1.691-.88-.324-.648-.128-1.343.301-1.911.602-.822,1.228-1.644,1.887-2.432.29-.347.707-.591,1.042-.892.66-.602,1.308-1.204,1.945-1.818.058-.046.035-.185.046-.29-.093,0-.22-.046-.29,0-.313.22-.602.475-.926.695-.95.66-1.899,1.32-2.86,1.969-1.158.799-2.374,1.552-3.462,2.432-.556.452-1.112.845-1.725,1.158-.695.359-1.378.73-2.096,1.031-.579.255-1.135.058-1.563-.371-.405-.394-.59-.903-.405-1.459.116-.336.266-.695.498-.926.984-.973,2.015-1.899,3.011-2.849.533-.51,1.042-1.054,1.586-1.563,1.228-1.17,2.455-2.328,3.694-3.486.486-.463.973-.938,1.482-1.378.475-.405.961-.799,1.482-1.158.405-.301.487-.66.371-1.1h.012s.012,0,.012-.012c-.012,0-.012-.012-.023-.012v.023c-1.413,1.054-2.814,2.096-4.239,3.15-.174.127-.359.232-.544.336-.695.359-1.32.799-1.911,1.32-.903.776-1.934,1.401-2.895,2.119-.903.672-1.83,1.285-2.826,1.83-1.089.579-2.05,1.39-3.092,2.084-.695.463-1.448.857-2.142,1.32-.544.371-1.031.22-1.494-.058-.475-.301-.753-.764-.672-1.355.128-.915.567-1.679,1.239-2.293.707-.637,1.436-1.239,2.166-1.853.637-.533,1.308-1.042,1.945-1.575.973-.811,1.922-1.656,2.895-2.455.463-.382.973-.706,1.448-1.077.324-.243.591-.544.845-.88.382-.486.973-.799,1.448-1.216.556-.498,1.088-1.019,1.633-1.529.081-.069.151-.174.243-.22,1.181-.602,2.073-1.586,3.104-2.386.243-.197.452-.428.649-.672.15-.197.567-.266.359-.602-.035-.058-.521.104-.741.243-.498.336-.961.718-1.424,1.088-.834.66-1.644,1.355-2.49,1.992-.602.44-1.262.787-1.864,1.216-.811.556-1.587,1.17-2.386,1.749-.579.405-1.158.787-1.749,1.181-1.644,1.1-3.266,2.235-4.933,3.3-.857.544-1.818.95-2.721,1.436-.811.44-1.587.926-2.409,1.355-.371.197-.764.394-1.17.463-.961.162-1.691-.567-1.54-1.529.046-.301.151-.648.336-.88.753-.961,1.494-1.934,2.629-2.513.591-.313,1.1-.776,1.644-1.17.174-.127.371-.371.533-.347.741.093.938-.197.764-.88-.023-.093.127-.255.232-.347,1.274-1.112,2.548-2.258,3.856-3.335,1.366-1.135,2.768-2.2,4.157-3.289,1.135-.903,2.282-1.795,3.405-2.71.336-.266.637-.567.926-.88.139-.162.51-.266.278-.556-.046-.058-.44.116-.637.243-1.529,1.042-3.034,2.096-4.563,3.127-.614.417-1.285.753-1.911,1.17-.475.301-.903.672-1.366.996-.545.382-1.019.869-1.714,1.054-.347.093-.649.417-.95.66-.567.463-1.031,1.007-1.737,1.355-.892.452-1.621,1.239-2.455,1.841-1.575,1.146-3.219,2.177-4.956,3.057-.475.243-.915.127-1.308-.151-.382-.278-.475-.718-.347-1.158.104-.324.266-.672.498-.926,1.158-1.239,2.351-2.443,3.52-3.671.324-.324.625-.672.961-.996.394-.394.822-.764,1.239-1.147.463-.44.903-.903,1.366-1.332,1.181-1.077,2.351-2.154,3.532-3.208.278-.243.556-.475.625-.869-.301.151-.625.278-.915.452-.984.567-1.969,1.123-2.918,1.749-1.274.834-2.571,1.644-3.717,2.64-1.181,1.019-2.524,1.668-3.937,2.235-.127.046-.255.104-.382.185-.394.22-.764.359-1.17-.012-.545-.486-.695-.892-.498-1.471.382-1.193.915-2.362,1.876-3.161,2.189-1.83,4.227-3.856,6.624-5.466.903-.602,1.702-1.367,2.548-2.061.046-.035.081-.104.116-.162-.081-.012-.185-.058-.266-.035-.915.324-1.633.961-2.409,1.494-1.112.776-2.189,1.598-3.347,2.27-.475.266-.776.683-1.204.973-.961.648-1.841,1.436-2.779,2.142-.602.452-1.413.116-1.552-.637-.104-.498.081-.903.394-1.274,1.32-1.54,2.617-3.08,3.926-4.621.243-.29.811-.614.556-.915-.359-.44-.614.197-.915.382-.544.336-1.065.695-1.621,1.019-.243.139-.509.243-.788.301-.37.081-.683-.023-.915-.371-.232-.336-.266-.66-.034-.984.579-.799,1.17-1.598,1.76-2.397.104-.139.243-.255.359-.394q.371-.44-.116-.787c-.452-.313-.509-.892-.07-1.471.347-.44.741-.857,1.17-1.228,1.042-.915,2.119-1.783,3.173-2.687.278-.243.672-.463.313-.95-.046-.081.07-.336.174-.452.961-1.135,2.015-2.2,3.254-3.022,1.088-.73,2.085-1.61,3.312-2.108.602-.243,1.158-.44,1.841-.151.301.139.811-.093,1.181-.266.984-.463,1.957-.996,2.93-1.482.232-.116.452-.232.695-.278.405-.069.799.035,1.019.417.22.359.185.764-.116,1.077-.22.232-.475.428-.753.602-1.019.637-2.061,1.228-2.93,2.084-.232.232-.625.336-.521.787.266-.139.544-.278.811-.428.07-.035.104-.104.174-.127,1.528-.625,2.64-1.899,4.099-2.629,1.112-.556,2.165-1.193,3.265-1.76.301-.151.695-.266,1.008-.208.347.081.811.313.926.591.174.452.301,1.054-.197,1.459-1.065.88-2.142,1.749-3.242,2.582-1.204.926-2.455,1.807-3.671,2.721-.671.51-1.239,1.181-2.085,1.448-.092.023-.174.116-.255.185-1.17.926-2.339,1.853-3.509,2.768-.591.452-1.193.892-1.772,1.355-.243.197-.452.44-.66.672-.07.069-.081.174-.116.255.093-.012.197,0,.29-.035.255-.127.521-.232.741-.394,1.181-.857,2.339-1.737,3.497-2.606.081-.07.151-.151.255-.197,1.482-.706,2.663-1.864,4.053-2.721,1.146-.706,2.212-1.517,3.335-2.247.533-.347,1.135-.591,1.679-.926.996-.591,1.969-1.228,2.976-1.818.88-.51,1.772-1.031,2.698-1.471.718-.324,1.494-.544,2.27-.753.463-.139,1.158.301,1.39.776.243.498.116,1.031-.336,1.436-1.32,1.181-2.744,2.235-4.03,3.428-.984.915-2.085,1.656-3.138,2.432-1.54,1.146-2.93,2.455-4.435,3.636-.591.452-1.262.799-1.853,1.239-.741.544-1.436,1.146-2.154,1.725-.301.243-.591.51-.892.753-.787.602-1.575,1.193-2.351,1.795-.046.046-.081.139-.07.185.012.046.116.093.162.081.243-.081.533-.127.683-.29.869-.926,2.073-1.343,3.103-2.027,1.239-.834,2.524-1.598,3.775-2.409,1.065-.695,2.108-1.424,3.161-2.131,1.239-.834,2.455-1.691,3.706-2.49,1.251-.811,2.525-1.563,3.775-2.362.625-.394,1.204-.869,1.818-1.285.533-.347,1.1-.637,1.644-.961.429-.255.845-.521,1.274-.776.822-.486,1.644-.973,2.606-1.1.729-.093.88.093,1.054.811.22.869-.035,1.529-.729,2.061-.799.614-1.471,1.378-2.397,1.864-.533.278-.926.845-1.378,1.274-.209.197-.417.405-.649.544-1.887,1.089-4.76,3.15-6.439,4.621-.452.405-.926.787-1.413,1.135-1.158.811-2.339,1.586-3.497,2.409-1.471,1.054-2.86,2.212-4.389,3.161-.903.556-1.783,1.146-2.606,1.807-.915.718-1.806,1.482-2.687,2.247-.069.046-.069.185-.092.278.092-.012.197.012.266-.035.718-.452,1.436-.915,2.154-1.378.44-.29.892-.567,1.332-.857.174-.116.324-.266.475-.405.243-.208.475-.44.741-.614,1.413-.869,2.849-1.714,4.261-2.582.359-.22.672-.533,1.031-.753,1.262-.787,2.582-1.471,3.786-2.328,1.98-1.39,4.157-2.455,6.01-4.042,1.065-.915,2.327-1.598,3.485-2.42,1.286-.926,2.548-1.911,3.845-2.837.429-.301.915-.556,1.413-.695.301-.093.707.012,1.008.15.498.232.591.533.394,1.054-.127.359-.29.753-.556,1.019-.683.66-1.378,1.343-2.165,1.864-.498.324-.857.73-1.274,1.112-.486.463-.984.903-1.47,1.355-1.031.938-2.062,1.876-3.081,2.826-.591.533-1.401.822-1.83,1.552-.034.058-.116.104-.174.116-.556.127-.95.498-1.343.869-.405.394-.822.776-1.251,1.158-.243.208-.486.405-.741.614-.579.463-1.32.683-1.853,1.262-.509.544-1.17.926-1.749,1.401-.602.498-1.181,1.019-1.76,1.552-.544.498-1.065,1.031-1.621,1.54-1.818,1.633-3.648,3.254-5.698,4.609-.428.278-.845.521-.764,1.123-.012,0-.012.012-.023.012.012,0,.012.012.023.012v-.023c.869-.475,1.633-1.077,2.374-1.714.66-.567,1.424-1.031,2.119-1.575,1.459-1.17,2.953-2.293,4.47-3.393.764-.556,1.633-.984,2.409-1.529.66-.452,1.25-1.007,1.876-1.505.649-.498,1.309-.961,1.945-1.471,1.262-1.031,2.721-1.76,3.926-2.872,1.042-.961,2.212-1.772,3.358-2.617,1.598-1.17,3.057-2.513,4.829-3.428.533-.278,1.1-.498,1.679-.637.463-.127.799-.533,1.378-.463,1.308.174,1.992,1.239,1.366,2.189-.301.475-.66.926-1.065,1.309-.695.66-1.448,1.251-2.165,1.876-1.529,1.367-3.092,2.71-4.574,4.134-.718.683-1.448,1.343-2.281,1.888-.394.266-.695.683-1.031,1.042-1.448,1.517-3.254,2.617-4.748,4.076-.255.255-.579.417-.869.625-.058.046-.058.162-.093.255.093-.012.209.023.29-.023.718-.44,1.436-.892,2.142-1.343.208-.139.394-.336.625-.405,1.204-.359,2.015-1.274,2.953-2.027.405-.324.822-.683,1.297-.903,1.251-.579,2.235-1.494,3.289-2.339.637-.498,1.286-.996,1.98-1.436,1.679-1.042,3.37-2.061,5.072-3.057.776-.452,1.934.127,2.027.996.069.683-.012,1.309-.602,1.83-.776.672-1.448,1.448-2.189,2.166-.475.452-.996.869-1.494,1.309-.649.556-1.285,1.112-1.945,1.656-.544.452-1.158.822-1.644,1.32-1.39,1.413-2.999,2.582-4.459,3.914-.602.533-1.32.926-1.945,1.436-.915.764-1.807,1.575-2.698,2.374-.058.058-.058.174-.093.266.093,0,.22.035.29-.012.672-.452,1.343-.903,2.027-1.355.347-.243.718-.452,1.077-.683.44-.29.88-.579,1.32-.88.371-.266.695-.625,1.1-.834,1.135-.579,2.166-1.32,3.15-2.119.116-.093.232-.174.359-.232,1.714-.73,3.127-1.922,4.678-2.918.799-.521,1.274-.521,1.957-.023.533.382.753,1.239.475,1.818-.753,1.621-.845,1.783-2.559,3.034-1.714,1.251-3.381,2.559-5.165,3.729-1.227.799-2.385,1.76-3.555,2.652-1.204.926-2.304,1.992-3.428,2.999-.185.162-.324.382-.44.602-.116.185-.509.151-.382.51Z"/>
</svg>